<?xml version="1.0" standalone="no"?>
<!DOCTYPE svg PUBLIC "-//W3C//DTD SVG 20010904//EN"
 "http://www.w3.org/TR/2001/REC-SVG-20010904/DTD/svg10.dtd">
<svg version="1.0" xmlns="http://www.w3.org/2000/svg"
 width="226.000000pt" height="240.000000pt" viewBox="0 0 226.000000 240.000000"
 preserveAspectRatio="xMidYMid meet">

<g transform="translate(0.000000,240.000000) scale(0.100000,-0.100000)"
fill="#000000" stroke="none">
<path d="M1100 2096 c0 -15 -7 -26 -20 -29 -19 -5 -20 -14 -20 -176 0 -151 -2
-171 -16 -171 -9 0 -31 -15 -49 -34 -24 -26 -31 -41 -28 -63 2 -15 12 -113 22
-218 20 -210 16 -241 -33 -316 -36 -54 -68 -67 -189 -77 -125 -10 -172 -31
-204 -88 -31 -53 -29 -69 2 -18 15 25 40 49 61 59 29 14 164 33 245 35 9 0 33
11 53 25 31 21 36 22 36 7 -1 -33 -48 -55 -120 -56 -51 -1 -73 -6 -89 -20 -31
-28 -58 -112 -70 -217 -13 -114 -25 -159 -51 -192 -29 -37 -70 -42 -125 -18
-59 26 -59 10 1 -18 52 -25 88 -22 128 10 32 25 53 95 67 219 18 165 62 230
148 216 19 -3 49 1 69 10 19 8 37 12 39 10 3 -2 7 -22 10 -43 6 -46 -15 -93
-82 -188 -68 -96 -84 -200 -45 -280 13 -26 18 -31 15 -15 -25 123 -17 191 31
257 18 27 46 70 60 97 31 60 35 56 59 -72 13 -66 16 -122 13 -200 -4 -97 -8
-117 -47 -212 -23 -58 -53 -116 -65 -130 -34 -36 -46 -64 -46 -104 0 -76 22
-85 70 -28 30 35 31 41 27 97 -5 53 -1 70 33 150 67 159 75 262 34 460 l-25
124 25 78 c14 43 29 92 35 108 9 29 9 28 10 -17 1 -25 8 -102 17 -170 15 -112
14 -155 -1 -228 -3 -16 2 -11 15 15 24 48 24 77 5 220 -15 112 -19 263 -9 302
6 22 43 38 57 24 18 -18 20 -185 2 -334 l-17 -152 22 -58 c12 -32 23 -57 25
-55 2 2 -4 30 -12 62 -14 54 -13 73 1 187 9 69 16 150 17 180 l1 54 14 -50 c8
-27 23 -72 33 -100 18 -49 18 -51 -7 -165 -28 -131 -33 -266 -12 -349 7 -30
30 -96 50 -145 33 -78 37 -99 33 -143 -5 -47 -2 -57 22 -89 49 -64 75 -55 75
27 0 39 -5 51 -35 82 -42 43 -108 202 -126 301 -6 38 -9 101 -7 140 6 83 38
236 49 236 5 0 18 -19 30 -43 12 -23 35 -59 52 -80 16 -21 36 -55 43 -75 16
-44 18 -134 4 -181 -13 -47 -4 -52 15 -8 18 43 19 126 4 182 -6 22 -30 67 -54
100 -66 93 -93 154 -87 198 5 42 8 43 48 22 17 -8 56 -15 91 -15 56 0 63 -3
81 -27 28 -42 41 -87 52 -187 21 -184 51 -236 137 -236 24 0 58 7 74 16 42 21
31 28 -14 9 -51 -21 -81 -19 -115 10 -34 28 -46 72 -63 212 -11 101 -42 188
-75 209 -15 10 -45 16 -80 15 -62 0 -107 18 -125 50 -14 27 -4 36 18 17 36
-31 66 -39 168 -48 128 -10 170 -28 202 -90 29 -55 35 -60 24 -23 -27 92 -75
121 -223 133 -122 10 -144 20 -185 79 -12 18 -29 57 -38 87 -14 48 -14 71 0
241 8 104 17 198 20 211 4 17 -4 31 -32 57 -21 19 -44 35 -50 35 -9 0 -13 20
-13 69 0 52 -4 70 -15 75 -19 7 -20 64 0 86 12 13 12 22 1 59 -7 24 -20 49
-29 56 -9 7 -17 22 -17 34 0 12 -6 21 -15 21 -9 0 -15 -9 -15 -24z m-8 -698
c2 -39 -3 -73 -13 -83 -21 -21 -39 48 -23 89 9 24 34 19 36 -6z m103 -34 c0
-37 -4 -49 -15 -49 -16 0 -27 63 -16 92 12 31 31 6 31 -43z m-171 -333 c-19
-69 -34 -87 -34 -41 0 31 37 116 46 107 3 -3 -2 -33 -12 -66z m225 29 c22 -42
27 -75 13 -84 -7 -4 -42 96 -42 119 0 13 10 1 29 -35z"/>
</g>
</svg>
